<?xml version="1.0" encoding="utf-8"?>
<!DOCTYPE svg PUBLIC "-//W3C//DTD SVG 1.1//EN" "http://www.w3.org/Graphics/SVG/1.1/DTD/svg11.dtd">
<svg version="1.1" id="Layer_1" xmlns="http://www.w3.org/2000/svg" xmlns:xlink="http://www.w3.org/1999/xlink" x="0px" y="0px"
	 viewBox="0 0 736 1920" enable-background="new 0 0 736 1920" xml:space="preserve">
<g>
	<path d="M371,1c0,1.7928,0,3.5856,0,5.6754c3.1156,0.2445,6.3162,1.6389,6.4228-3.3596c0.3531,2.0479,0.7062,4.0958,1.1506,6.6732
		c-2.4914,0.2529-4.7224,0.4794-7.3257,0.7436c-0.1255,1.4959-0.3484,2.9238-0.3499,4.352
		c-0.0223,21.8303-0.2111,43.6641,0.1733,65.4876c0.0652,3.7031,2.8299,7.3002,3.9487,11.0648
		c0.6826,2.297,1.0436,4.8735,0.7607,7.2297c-0.4067,3.3867,2.2062,7.6776-2.5941,10.0617
		c-0.3336,0.1657-0.1742,2.3479,0.3924,3.1329c3.2401,4.4883,3.2336,13.2663,0.1163,17.4642
		c-0.6358,0.8563-0.59,3.0179,0.0615,3.8931c2.897,3.8923,3.0266,13.6131,0.1478,17.1991
		c-0.6794,0.8462-0.9098,3.3442-0.6836,3.4353c4.4993,1.8116,1.9562,5.6888,2.6925,8.5564
		c0.3793,1.4774,0.6083,3.7155,1.5986,4.2039c12.0382,5.9364,18.5288,16.317,23.2351,28.2197
		c0.4892,1.2372,1.0104,2.4618,1.6767,4.0808c3.015,0,6.1187,0,9.5057,0c0,5.1783,0,9.9422,0,14.4297
		c-2.0557,0.9646-3.9575,1.857-5.8593,2.7493c1.4883,0.8992,2.9766,1.7984,5.1732,3.1254c0,4.6091,0,10.1639,0,16.047
		c-1.5847,0.2376-3.1574,0.4734-4.7447,0.7114c-1.5942,4.1084,1.0082,4.0649,3.7014,4.0146
		c2.4889-0.0465,4.9794-0.0099,8.2015-0.0099c0.6693,9.5112,1.3228,18.7991,1.8456,26.2295
		c-4.1078,3.606-7.3062,5.6669-9.5226,8.4969c-7.1563,9.1371-9.1574,20.2626-10.5312,31.3322
		c-0.9783,7.8829-1.1354,15.9439-0.846,23.8959c2.5145,69.0996,4.8686,138.2079,7.9481,207.2834
		c3.4505,77.3964,7.2257,154.7828,11.579,232.133c3.3885,60.2062,7.5691,120.3732,11.9834,180.5146
		c3.2673,44.5142,6.6931,89.0441,11.4969,133.4102c4.3712,40.37,10.6844,80.5303,16.1697,120.7791
		c0.7855,5.7638,1.7287,11.5063,2.6687,17.7203c7.3515,0,14.6183,0,21.7651,0c0.8004,4.2999,1.6515,8.0909,2.1089,11.9291
		c0.1024,0.8595-1.0937,2.6292-1.8301,2.7092c-4.3879,0.4767-6.4663,3.4833-7.6161,7.031
		c-3.408,10.5153-5.4131,21.1913-2.6185,32.2673c15.9972,63.4027,31.4259,126.9556,48.1893,190.1547
		c6.8099,25.6736,16.5431,50.5687,24.8087,75.863c0.9349,2.8607,2.542,3.3431,5.1542,3.3091
		c8.7884-0.1149,17.5792-0.0437,26.3507-0.0437c0,15.3308,0,30.0577,0,45.1138c3.3297,0.3149,6.3163,0.5974,9.6169,0.9095
		c-7.0198,9.2853-10.4893,25.4117-7.3981,33.9413c-0.9554,0.5508-1.9647,1.1327-3.1775,1.8319
		c10.9536,22.4906,21.7955,44.7814,32.6629,67.0597c31.6002,64.7809,63.2236,129.5507,94.7839,194.351
		c1.8188,3.7345,4.1771,6.1594,8.1887,8.0043c6.1494,2.8286,11.6587,7.0488,17.4405,10.679
		c-1.4589,6.6013,3.6301,9.3694,7.3774,12.9135c-1.3333,0.3334-2.6664,0.9567-4.0001,0.958C684,1921.0078,635,1921,586,1921
		c1.1193-4.0438,3.201-8.076-0.7626-11.923c-0.5778-0.561-0.3848-2.851,0.2827-3.6021c3.254-3.6606,4.5316-7.8728,4.5386-12.6567
		c0.0457-31.0323-10.3522-59.001-24.8798-85.8313c-30.874-57.0192-103.08-107.4421-175.689-112.4075
		c-60.7076-4.1514-114.576,11.485-162.1179,49.3146c-41.5111,33.0313-68.164,75.2056-77.6483,127.5934
		c-2.1008,11.6042-5.3472,23.9421,3.3321,34.8429c0.4419,0.5548,0.2975,2.312-0.2269,2.7843
		c-4.1758,3.7604-1.7248,7.8563-0.8289,11.8854c-49,0-98,0.0078-146.9999-0.0419C3.6664,1920.9568,2.3333,1920.3334,1,1920
		c3.6146-3.4304,8.4598-6.1499,7.3925-13.2753c6.372-3.5896,13.4044-7.3024,20.1397-11.4927
		c2.1027-1.3081,3.8861-3.6693,5.0007-5.9473c29.9281-61.1628,59.7509-122.3773,89.5889-183.5844
		c11.381-23.3461,22.7383-46.7039,34.1546-70.0326c1.4243-2.9103,2.392-5.4476,1.6747-9.0864
		c-0.9246-4.6901,0.3462-9.7689-0.1221-14.6034c-0.6998-7.2241-2.0268-14.4061-8.4045-20.6892
		c3.6515-0.332,6.5798-0.5984,10.0032-0.9097c0-14.8922,0-29.6169,0-45.1871c7.3595,0,14.7742,0.0011,22.1888-0.0004
		c8.2023-0.0016,7.9718-0.0938,10.9848-7.7145c20.2079-51.1115,32.0708-104.6132,45.36-157.7092
		c8.8488-35.3546,17.9749-70.642,26.491-106.0763c2.5739-10.7094,0.6228-21.54-3.8424-31.5874
		c-1.0218-2.2992-4.3841-3.5082-6.5254-5.3833c-0.9234-0.8085-2.186-2.1141-2.0802-3.0577
		c0.4133-3.6864,1.312-7.3185,2.1396-11.5261c6.9288,0,14.18,0,21.7236,0c2.7094-18.2045,5.6919-35.9119,7.9254-53.7131
		c5.4102-43.1206,10.9931-86.2308,15.5021-129.4501c3.3697-32.2986,5.2884-64.7524,7.6434-97.1525
		c3.0315-41.7084,6.0662-83.4186,8.6977-125.1534c2.097-33.2574,3.6509-66.5499,5.3405-99.8322
		c2.602-51.2566,5.1968-102.5138,7.6393-153.7781c2.2126-46.4393,4.4301-92.8802,6.2448-139.336
		c1.379-35.3001,2.4617-70.6198,2.9919-105.941c0.2055-13.6946-2.473-27.2204-9.26-39.4546
		c-2.4683-4.4493-5.2104-9.0273-11.9352-9.925c0.6554-9.2014,1.3083-18.3676,1.9683-27.6327
		c4.3059-0.5349,8.2806-0.9966,12.2256-1.6399c0.1522-0.0248,0.0194-1.7968,0.0194-2.9919
		c-1.7043-0.1716-3.1521-0.3174-5.0156-0.505c0-5.6203,0-11.176,0-16.4994c1.7855-0.9703,3.4507-1.8752,5.1159-2.7801
		c-1.7348-0.8528-3.4696-1.7057-5.7657-2.8345c0-4.1901,0-9.0668,0-14.3386c3.2409,0,6.3452,0,9.5052,0
		c3.7485-10.2509,8.1871-19.7142,16.465-26.7751c0.7602-0.6484,1.3844-1.6034,2.2567-1.9492
		c6.0888-2.4132,9.1331-6.4755,7.8633-13.2819c-0.1209-0.648,1.4228-1.4692,1.7392-2.3697
		c0.4335-1.2336,1.0584-3.0164,0.5144-3.8763c-3.378-5.3395-3.3705-11.843,0.165-17.8266c0.4951-0.8379,0.5005-2.4764,0.003-3.3075
		c-3.515-5.871-3.5817-12.7472-0.1718-17.7853c0.5429-0.8021,0.7231-2.817,0.2311-3.2044
		c-5.6829-4.4737-1.6049-10.4433-2.3514-15.611c-0.2892-2.0013,2.1177-4.2605,2.7246-6.5535
		c0.9317-3.52,1.896-7.1659,1.9294-10.7669c0.1837-19.8314,0.0887-39.6654,0.0893-59.4985c0.0001-1.7889,0-3.5777,0-5.5841
		c-2.639-0.2526-4.748-0.4544-7.4671-0.7146c0.3003-2.3036,0.5806-4.4544,0.7749-5.9445c1.7897,1.1066,3.6452,2.2539,6.5239,4.0338
		c0-3.5812,0-5.3726,0-7.164C368.3333,1,369.6667,1,371,1z M324.441,1328.0408c-11.922,72.7325-22.6619,145.1182-38.1751,216.7688
		c55.1111,0,110.597,0,165.2077,0c-12.8733-72.3667-25.707-144.5107-38.561-216.7688
		C383.658,1328.0408,354.2241,1328.0408,324.441,1328.0408z"/>
</g>
</svg>
